<svg width="802" height="379" viewBox="0 0 802 379" fill="none" xmlns="http://www.w3.org/2000/svg">
<path d="M169.115 1.08008C202.807 1.08008 231.941 7.59049 256.518 20.6113C292.162 39.3288 313.972 72.125 321.947 119H273.852C267.992 92.7956 255.867 73.7526 237.475 61.8711C219.083 49.8268 195.889 43.8047 167.895 43.8047C134.691 43.8047 106.697 56.2559 83.9102 81.1582C61.2865 106.061 49.9746 143.17 49.9746 192.486C49.9746 235.13 59.3333 269.879 78.0508 296.734C96.7682 323.427 127.286 336.773 169.604 336.773C201.993 336.773 228.767 327.415 249.926 308.697C271.247 289.817 282.152 259.381 282.641 217.389H170.336V177.105H327.807V369H296.557L284.838 322.857C268.399 340.924 253.832 353.456 241.137 360.455C219.815 372.499 192.715 378.521 159.838 378.521C117.357 378.521 80.8177 364.768 50.2188 337.262C16.8529 302.757 0.169922 255.393 0.169922 195.172C0.169922 135.113 16.446 87.3431 48.998 51.8613C79.9225 18.0072 119.962 1.08008 169.115 1.08008ZM716.44 359.64C716.44 369 710.2 369 706.56 369C687.32 369 666 367.44 646.24 367.44C626.48 367.44 606.2 369 586.96 369C585.4 369 579.68 369 579.68 362.76C579.68 352.88 585.4 352.88 593.72 352.88C629.08 352.88 632.2 348.72 636.36 331.04L709.68 36.72H709.16L515.2 359.64C512.08 365.36 509.48 369 502.72 369C494.92 369 494.92 365.36 493.88 356.52L462.16 41.4H461.64L392.48 317.52C390.4 325.84 390.4 328.96 390.4 330.52C390.4 338.32 391.44 351.84 421.08 352.88C427.32 352.88 430.96 353.4 430.96 359.64C430.96 369 424.72 369 421.6 369C405.48 369 387.28 367.44 370.64 367.44C354.52 367.44 336.84 369 321.24 369C317.6 369 314.48 367.44 314.48 362.76C314.48 353.4 320.2 352.88 324.36 352.88C347.76 351.84 367.52 345.6 374.8 316.48L441.36 48.68C443.44 41.4 443.44 40.36 443.44 38.8C443.44 29.96 429.4 29.96 413.28 29.96C403.4 29.96 399.24 29.96 399.24 23.72C399.24 13.84 404.96 13.84 413.28 13.84H482.44C494.92 13.84 495.96 13.84 497 25.28L526.12 317L702.92 23.2C708.64 13.84 710.2 13.84 721.64 13.84H788.2C797.04 13.84 801.2 13.84 801.2 20.6C801.2 29.96 796.52 29.96 785.6 29.96C752.84 29.96 748.68 34.12 744.52 50.76L674.32 332.08C672.24 339.88 672.24 344.04 672.24 344.04C672.24 348.72 672.24 352.88 702.4 352.88C712.8 352.88 716.44 352.88 716.44 359.64Z" fill="#131313"/>
</svg>
